<svg width="91" height="140" viewBox="0 0 91 140" fill="none" xmlns="http://www.w3.org/2000/svg">
<circle cx="45.5" cy="45.5" r="45.5" fill="#D3D3D3"/>
<path d="M56.8391 46C60.1724 45.4667 63.1724 46.2667 65.8391 48.4C68.6391 50.5333 70.0391 53.2667 70.0391 56.6C70.0391 59.6667 68.9057 62.3333 66.6391 64.6C64.3724 66.8667 61.7057 68 58.6391 68C55.5724 68 53.0391 66.8667 51.0391 64.6C49.0391 62.2 47.9057 59.4 47.6391 56.2C47.1057 50.4667 47.3057 45.6667 48.2391 41.8C49.1724 37.8 50.6391 34.1333 52.6391 30.8C54.1057 28.5333 56.0391 26.3333 58.4391 24.2C60.9724 22.0667 63.6391 20.6 66.4391 19.8C67.9057 19.4 68.7057 19.3333 68.8391 19.6C69.1057 19.8667 69.2391 20.7333 69.2391 22.2V24.4C69.2391 26 69.1057 27 68.8391 27.4C68.7057 27.6667 67.9057 28.0667 66.4391 28.6C63.5057 29.6667 61.1724 31.6667 59.4391 34.6C57.7057 37.5333 56.8391 41.3333 56.8391 46ZM29.2391 46C32.5724 45.4667 35.5724 46.2667 38.2391 48.4C41.0391 50.5333 42.4391 53.2667 42.4391 56.6C42.4391 59.6667 41.3057 62.3333 39.0391 64.6C36.7724 66.8667 34.1057 68 31.0391 68C27.9724 68 25.4391 66.8667 23.4391 64.6C21.4391 62.2 20.3057 59.4 20.0391 56.2C19.5057 50.4667 19.7057 45.6667 20.6391 41.8C21.5724 37.8 23.0391 34.1333 25.0391 30.8C26.5057 28.5333 28.4391 26.3333 30.8391 24.2C33.3724 22.0667 36.0391 20.6 38.8391 19.8C40.3057 19.4 41.1057 19.3333 41.2391 19.6C41.5057 19.8667 41.6391 20.7333 41.6391 22.2V24.4C41.6391 26 41.5057 27 41.2391 27.4C41.1057 27.6667 40.3057 28.0667 38.8391 28.6C35.9057 29.6667 33.5724 31.6667 31.8391 34.6C30.1057 37.5333 29.2391 41.3333 29.2391 46Z" fill="#F26722"/>
</svg>
